<!-- /frontend/assets/google-icon.svg -->
<svg width="18" height="18" viewBox="0 0 18 18" fill="none" xmlns="http://www.w3.org/2000/svg">
  <path d="M17.6402 9.20455C17.6402 8.56818 17.582 7.94091 17.4764 7.33636H9V10.8409H13.8436C13.6364 11.9727 13.0091 12.9318 12.0727 13.5682V15.8182H14.9591C16.6773 14.25 17.6402 11.9318 17.6402 9.20455Z" fill="#4285F4"/>
  <path d="M9 18C11.4318 18 13.4773 17.1955 14.9591 15.8182L12.0727 13.5682C11.2182 14.1273 10.2045 14.4545 9 14.4545C6.95455 14.4545 5.23636 13.0818 4.54091 11.2636H1.58182V13.6C3.06364 16.2955 5.82273 18 9 18Z" fill="#34A853"/>
  <path d="M4.54091 11.2636C4.35455 10.7409 4.25 10.1727 4.25 9.58182C4.25 8.99091 4.35455 8.42273 4.54091 7.89999V5.54545H1.58182C0.945455 6.85909 0.581818 8.17273 0.581818 9.58182C0.581818 11.0001 0.945455 12.3045 1.58182 13.6L4.54091 11.2636Z" fill="#FBBC05"/>
  <path d="M9 4.70455C10.3227 4.70455 11.5091 5.17273 12.4545 6.06818L15.0227 3.5C13.4682 2.09545 11.4318 1.16364 9 1.16364C5.82273 1.16364 3.06364 2.86818 1.58182 5.54545L4.54091 7.9C5.23636 6.08182 6.95455 4.70455 9 4.70455Z" fill="#EA4335"/>
</svg>
